<?xml version="1.0" standalone="no"?>
<!DOCTYPE svg PUBLIC "-//W3C//DTD SVG 1.1//EN" "http://www.w3.org/Graphics/SVG/1.1/DTD/svg11.dtd">
<svg width="100%" height="100%" viewBox="0 0 16 16" version="1.1" xmlns="http://www.w3.org/2000/svg" xmlns:xlink="http://www.w3.org/1999/xlink" xml:space="preserve" style="fill-rule:evenodd;clip-rule:evenodd;stroke-linejoin:round;stroke-miterlimit:1.41421;">
    <g transform="matrix(0.5,0,0,0.5,-305,-310)">
        <path d="M634,649.857C631.646,651.22 628.913,652 626,652C623.087,652 620.354,651.22 618,649.857L618,636L618,635.948C618.028,631.557 621.602,628 626,628C630.415,628 634,631.585 634,636L634,649.857ZM616,648.487C612.343,645.554 610,641.048 610,636C610,627.169 617.169,620 626,620C634.831,620 642,627.169 642,636C642,641.048 639.657,645.554 636,648.487L636,636L636,635.935C635.965,630.446 631.498,626 626,626C620.481,626 616,630.481 616,636L616,648.487ZM631,636L631,641L621,641L621,636L621,635.968C621.018,633.223 623.251,631 626,631C628.749,631 630.982,633.223 631,635.968L631,636ZM623,636L623,639L629,639L629,636C629,634.344 627.656,633 626,633C624.351,633 623.011,634.334 623,635.981L623,636Z" style="fill:rgb(249,184,31);"/>
    </g>
</svg>
