<?xml version="1.0" standalone="no"?>
<!DOCTYPE svg PUBLIC "-//W3C//DTD SVG 1.1//EN" "http://www.w3.org/Graphics/SVG/1.1/DTD/svg11.dtd">
<svg width="100%" height="100%" viewBox="0 0 454 281" version="1.1" xmlns="http://www.w3.org/2000/svg" xmlns:xlink="http://www.w3.org/1999/xlink" xml:space="preserve" style="fill-rule:evenodd;clip-rule:evenodd;stroke-linejoin:round;stroke-miterlimit:1.41421;">
    <g id="Hand" transform="matrix(1.58504e-16,0.559536,-0.559536,1.58504e-16,869.239,-250.672)">
        <path d="M461,1303C461.001,1434.08 567.421,1540.5 698.5,1540.5C829.58,1540.5 936,1434.08 936,1303L936.04,1303L936.006,1148.76L936,1148.76L936,1148.76C936,1118.68 911.579,1094.26 881.5,1094.26C851.421,1094.26 827,1118.68 827,1148.76L827.001,1148.92L827,1148.92L826.989,1184.15L827,1202L814.04,1202L814.038,1191L814,1191L814.017,1166.58L814.014,1148.76L814,1148.76C814,1148.31 814.004,1147.85 814.014,1147.4L814.006,1109.76L814,1109.76L814,1109.76C814,1079.68 789.579,1055.26 759.5,1055.26C729.421,1055.26 705,1079.68 705,1109.76L705.001,1109.92L705,1109.92L704.988,1147.76L705,1173L692.04,1173L692.036,1152L692,1152L692.016,1133.02L692.012,1109.76L692,1109.76C692,1109.34 692.004,1108.91 692.012,1108.49L692.006,1080.76L692,1080.76L692,1080.76C692,1050.68 667.579,1026.26 637.5,1026.26C607.421,1026.26 583,1050.68 583,1080.76L583.001,1080.92L583,1080.92L583,1081.67L583,1085L582.999,1085L582.96,1123L570,1123L570.02,1080.76L570,1080.76C570,1079.99 570.013,1079.21 570.039,1078.43L570.006,810.761L570,810.761L570,810.761C570,780.681 545.579,756.261 515.5,756.261C485.421,756.261 461,780.681 461,810.761L461.001,810.921L461,810.921L460.96,1303L461,1303ZM474,848L474,811L474.001,810.732C474.145,787.951 492.685,769.5 515.5,769.5C538.315,769.5 556.855,787.951 556.999,810.732L557,811L557,848L474,848ZM487,835L544,835L544,811L543.999,810.816C543.9,795.171 531.168,782.5 515.5,782.5C499.77,782.5 487,795.27 487,811L487,835ZM949,1303C949,1441.26 836.754,1553.5 698.5,1553.5C560.515,1553.5 448.439,1441.69 448.001,1303.81L448,1303L448.02,810.761L448,810.761C448,801.675 449.784,792.366 453.308,783.997C456.671,776.011 461.656,768.665 467.78,762.54C473.904,756.416 481.238,751.404 489.236,748.069C497.915,744.45 506.829,742.858 515.546,743C550.904,743.576 583.021,772.682 583,810.761L582.98,810.761L582.997,1040.45C585.054,1037.65 587.325,1035 589.78,1032.54C595.904,1026.42 603.238,1021.4 611.236,1018.07C619.915,1014.45 628.829,1012.86 637.546,1013C669.666,1013.52 699.111,1037.59 704.219,1070.54C706.477,1067.33 709.012,1064.31 711.78,1061.54C717.904,1055.42 725.238,1050.4 733.236,1047.07C741.915,1043.45 750.829,1041.86 759.546,1042C794.503,1042.57 826.291,1071.02 826.988,1108.47C829.048,1105.65 831.322,1103 833.78,1100.54C839.904,1094.42 847.238,1089.4 855.236,1086.07C863.915,1082.45 872.829,1080.86 881.546,1081C916.904,1081.58 949.021,1110.68 949,1148.76L948.98,1148.76L949,1303Z" style="fill:rgb(249,184,31);"/>
    </g>
</svg>
