<?xml version="1.0" standalone="no"?>
<!DOCTYPE svg PUBLIC "-//W3C//DTD SVG 1.1//EN" "http://www.w3.org/Graphics/SVG/1.1/DTD/svg11.dtd">
<svg width="100%" height="100%" viewBox="0 0 80 80" version="1.1" xmlns="http://www.w3.org/2000/svg" xmlns:xlink="http://www.w3.org/1999/xlink" xml:space="preserve" style="fill-rule:evenodd;clip-rule:evenodd;stroke-linejoin:round;stroke-miterlimit:1.41421;">
    <g transform="matrix(0.275862,0,0,0.275862,-137.931,-110.345)">
        <path d="M577.502,673.342C531.433,649.043 500,600.663 500,545C500,464.972 564.972,400 645,400C725.028,400 790,464.972 790,545C790,600.663 758.567,649.043 712.498,673.342L712.48,544.761L712.5,544.761C712.521,506.682 680.404,477.576 645.046,477C636.329,476.858 627.415,478.45 618.736,482.069C610.738,485.404 603.404,490.416 597.28,496.54C591.156,502.665 586.171,510.011 582.808,517.997C579.284,526.366 577.5,535.675 577.5,544.761L577.52,544.761L577.502,673.342ZM603.5,582L603.5,545L603.501,544.732C603.645,521.951 622.185,503.5 645,503.5C667.815,503.5 686.355,521.951 686.499,544.732L686.5,545L686.5,582L603.5,582ZM616.5,569L673.5,569L673.5,545L673.499,544.816C673.4,529.171 660.668,516.5 645,516.5C629.27,516.5 616.5,529.27 616.5,545L616.5,569ZM699.538,679.377C682.699,686.226 664.287,690 645,690C625.713,690 607.301,686.226 590.462,679.377L590.5,544.921L590.501,544.921L590.5,544.761C590.5,514.681 614.921,490.261 645,490.261C675.079,490.261 699.5,514.681 699.5,544.761L699.5,544.761L699.506,544.761L699.538,679.377Z" style="fill:rgb(249,184,31);"/>
    </g>
</svg>
