<svg viewBox="0 0 454 281" xmlns="http://www.w3.org/2000/svg" fill-rule="evenodd" clip-rule="evenodd" stroke-linejoin="round" stroke-miterlimit="1.414"><path d="M140.164 7.274c-73.344 0-132.89 59.546-132.89 132.89s59.546 132.89 132.89 132.89v.022l86.302-.02v-.002c16.83 0 30.495-13.665 30.495-30.495 0-16.83-13.663-30.496-30.494-30.496h-.09l-19.712-.006-9.987.006v-7.25l6.155-.002v-.022l13.663.01 9.97-.002v-.008c.253 0 .51.003.762.008l21.06-.004v-.004c16.832 0 30.496-13.664 30.496-30.494S265.12 143.8 248.288 143.8h-.09l-21.172-.006-14.123.007v-7.25l11.75-.003v-.02l10.62.01 13.015-.003v-.007c.235 0 .476.002.71.007l15.517-.004v-.003c16.83 0 30.495-13.665 30.495-30.495 0-16.83-13.664-30.495-30.495-30.495h-2.373l-21.262-.022v-7.25l23.635.01v-.01c.43 0 .867.006 1.304.02l149.77-.018v-.003c16.83 0 30.494-13.665 30.494-30.495 0-16.83-13.664-30.496-30.495-30.496h-.09l-275.336-.022v.022zm254.588 7.274H415.605c12.747.08 23.07 10.455 23.07 23.22 0 12.767-10.323 23.14-23.07 23.22l-.15.002h-20.703V14.548zm7.274 7.274v31.894h13.532c8.754-.056 15.844-7.18 15.844-15.947 0-8.803-7.145-15.948-15.947-15.948h-13.43zM140.164 280.328C62.802 280.328 0 217.522 0 140.164 0 62.956 62.562.246 139.71 0h.454L415.59.01V0c5.083 0 10.292.998 14.974 2.97 4.47 1.882 8.58 4.67 12.006 8.098 3.427 3.426 6.23 7.53 8.097 12.005 2.025 4.856 2.916 9.844 2.837 14.722-.323 19.784-16.608 37.754-37.915 37.742v-.01l-128.52.01c1.566 1.15 3.05 2.42 4.426 3.794 3.424 3.428 6.233 7.53 8.096 12.007 2.026 4.856 2.915 9.843 2.837 14.72-.292 17.973-13.76 34.45-32.197 37.307 1.796 1.263 3.486 2.682 5.036 4.23 3.424 3.427 6.232 7.53 8.096 12.006 2.025 4.856 2.915 9.844 2.836 14.72-.318 19.56-16.237 37.348-37.192 37.738 1.578 1.152 3.06 2.425 4.437 3.8 3.425 3.427 6.233 7.53 8.097 12.005 2.025 4.857 2.915 9.844 2.837 14.722-.324 19.784-16.606 37.754-37.914 37.743v-.012l-86.302.012z" fill="#F9B81F"/></svg>