<svg viewBox="0 0 80 80" xmlns="http://www.w3.org/2000/svg" fill-rule="evenodd" clip-rule="evenodd" stroke-linejoin="round" stroke-miterlimit="1.414"><path d="M21.38 75.404C8.67 68.7 0 55.354 0 40 0 17.923 17.923 0 40 0s40 17.923 40 40c0 15.355-8.67 28.7-21.38 35.404l-.005-35.47h.006C58.627 29.43 49.768 21.4 40.014 21.24c-2.405-.038-4.864.4-7.258 1.4-2.207.92-4.23 2.302-5.92 3.992-1.69 1.69-3.064 3.716-3.99 5.92-.974 2.307-1.466 4.875-1.466 7.382h.005l-.005 35.47zm7.172-25.197V39.926c.04-6.285 5.154-11.374 11.448-11.374 6.294 0 11.408 5.09 11.448 11.374v10.281H28.552zm3.586-3.587h15.724v-6.67c-.028-4.317-3.54-7.812-7.862-7.812-4.34 0-7.862 3.522-7.862 7.862v6.62zm22.907 30.45C50.4 78.96 45.32 80 40 80c-5.32 0-10.4-1.04-15.045-2.93l.01-37.092v-.044C24.966 31.636 31.703 24.9 40 24.9s15.034 6.736 15.034 15.034h.002l.01 37.135z" fill="#F9B81F"/></svg>