<svg viewBox="0 0 755 203" xmlns="http://www.w3.org/2000/svg" fill-rule="evenodd" clip-rule="evenodd" stroke-linejoin="round" stroke-miterlimit="1.414"><path d="M13.173 202.26V31.94s52.704 60.72 63.936 72.865c.78.846 2.673.846 3.455 0C91.797 92.66 144.5 31.94 144.5 31.94v170.32h12.96s.48-166.892 0-200.56c-.014-1.072-2.153-2.23-2.88-1.44-13.055 14.21-75.455 86.69-75.455 86.69S16.245 14.47 3.093.26C2.363-.526.228.63.213 1.7c-.48 33.668 0 200.56 0 200.56h12.96zM209.3.26h12.96v202H209.3zM274.1 199.514c12.703 1.87 24.43 2.737 35.252 2.747 95.906.088 120.557-63.99 120.557-99.706C429.91 64.496 407.69.224 309.256.26c-11.064.005-23.09.856-36.156 2.69l1 196.564zm12.25-185.62c88.99-11.81 129.16 36.532 129.16 88.66 0 61.056-55.01 96.384-128.16 87.168l-1-175.83zM746.84 13.51C736.19 6.31 717.76.26 700.76.26c-36.86 0-52.41 25.345-52.41 47.52 0 27.073 19.87 38.07 49.25 55.638 27.93 16.704 44.06 26.267 44.06 51.323 0 15.84-15.84 36.29-43.78 36.29-21.02 0-35.42-8.065-46.65-17.857l-7.2 10.368c10.94 9.793 25.05 18.433 54.43 18.72 30.24.29 55.01-15.263 55.87-49.247.87-26.496-18.72-44.123-50.11-61.115-19.58-10.656-42.62-22.517-42.62-44.98 0-19.585 14.68-35.425 39.16-35.425 17 0 28.52 4.896 40.61 12.096l5.47-10.08z" fill-rule="nonzero"/><g><path d="M480.282 68.182l-.04 134.08h-12.96l.02-134.24h-.02c0-9.086 1.783-18.395 5.307-26.764 3.362-7.986 8.347-15.332 14.47-21.457 6.125-6.123 13.46-11.135 21.457-14.47 8.68-3.62 17.593-5.21 26.31-5.07 35.358.577 67.475 29.683 67.454 67.762h-.02l.02 134.24h-12.96l-.033-134.24h-.006c0-30.08-24.42-54.5-54.5-54.5-30.078 0-54.5 24.42-54.5 54.5l.002.16z"/><path d="M493.28 105.26v-37l.002-.267c.144-22.78 18.684-41.232 41.5-41.232 22.814 0 41.354 18.452 41.498 41.233v37.268h-83zm13-13h57V68.078c-.1-15.645-12.83-28.316-28.5-28.316-15.73 0-28.5 12.77-28.5 28.5v24z"/></g></svg>