<svg viewBox="0 0 12 12" xmlns="http://www.w3.org/2000/svg" fill-rule="evenodd" clip-rule="evenodd" stroke-linejoin="round" stroke-miterlimit="1.414"><path d="M9 11.196A5.969 5.969 0 0 1 6 12a5.969 5.969 0 0 1-3-.804V5.98A3.002 3.002 0 0 1 6 3c1.656 0 3 1.344 3 3v5.196zm-6.75-.513A5.99 5.99 0 0 1 0 6c0-3.312 2.688-6 6-6s6 2.688 6 6a5.99 5.99 0 0 1-2.25 4.683V5.976A3.752 3.752 0 0 0 6 2.25C3.93 2.25 2.25 3.93 2.25 6v4.683zM7.875 6v1.875h-3.75V5.988a1.876 1.876 0 0 1 3.75 0V6zm-3 0v1.125h2.25V6a1.125 1.125 0 0 0-2.25-.007V6z" fill="#f9b81f"/></svg>