<svg viewBox="0 0 12 12" xmlns="http://www.w3.org/2000/svg" fill-rule="evenodd" clip-rule="evenodd" stroke-linejoin="round" stroke-miterlimit="1.414"><path d="M9 11.196c-.883.512-1.908.804-3 .804s-2.117-.292-3-.804V5.98C3.01 4.334 4.35 3 6 3c1.656 0 3 1.344 3 3v5.196zm-6.75-.513C.88 9.583 0 7.893 0 6c0-3.312 2.688-6 6-6s6 2.688 6 6c0 1.893-.88 3.583-2.25 4.683V5.976C9.737 3.916 8.062 2.25 6 2.25 3.93 2.25 2.25 3.93 2.25 6v4.683zM7.875 6v1.875h-3.75V5.988C4.132 4.958 4.97 4.125 6 4.125c1.03 0 1.868.834 1.875 1.863V6zm-3 0v1.125h2.25V6c0-.62-.504-1.125-1.125-1.125-.618 0-1.12.5-1.125 1.118V6z" fill="#F9B81F"/></svg>