<svg viewBox="0 0 80 80" xmlns="http://www.w3.org/2000/svg" fill-rule="evenodd" clip-rule="evenodd" stroke-linejoin="round" stroke-miterlimit="1.414"><path d="M21.38 75.404C8.67 68.701 0 55.355 0 40 0 17.923 17.923 0 40 0s40 17.923 40 40c0 15.355-8.671 28.701-21.38 35.404l-.005-35.47h.006c.005-10.505-8.854-18.534-18.608-18.693-2.405-.039-4.864.4-7.258 1.399a18.503 18.503 0 0 0-5.92 3.992 18.671 18.671 0 0 0-3.991 5.919c-.973 2.308-1.465 4.876-1.465 7.383h.006l-.005 35.47zm7.172-25.197V39.926c.04-6.285 5.154-11.374 11.448-11.374 6.294 0 11.408 5.09 11.448 11.374v10.281H28.552zm3.586-3.587h15.724V39.95A7.866 7.866 0 0 0 40 32.138 7.866 7.866 0 0 0 32.138 40v6.62zm22.907 30.45A39.843 39.843 0 0 1 40 80c-5.32 0-10.4-1.041-15.045-2.93l.01-37.092v-.044c0-8.298 6.737-15.035 15.035-15.035s15.034 6.737 15.034 15.035h.002l.009 37.135z" fill="#f9b81f"/></svg>