<svg viewBox="0 0 755 203" xmlns="http://www.w3.org/2000/svg" fill-rule="evenodd" clip-rule="evenodd" stroke-linejoin="round" stroke-miterlimit="1.414"><path d="M13.173 202.261V31.941s52.704 60.72 63.936 72.864c.782.846 2.674.846 3.456 0 11.232-12.144 63.936-72.864 63.936-72.864v170.32h12.96s.48-166.893 0-200.56c-.015-1.073-2.154-2.23-2.88-1.44-13.056 14.208-75.456 86.688-75.456 86.688S16.245 14.469 3.093.261C2.364-.527.228.628.213 1.701c-.48 33.667 0 200.56 0 200.56h12.96zM209.301.261h12.96v202h-12.96zM274.101 199.514c12.702 1.869 24.43 2.737 35.251 2.747 95.906.087 120.557-63.992 120.557-99.707 0-38.058-22.22-102.331-120.652-102.293-11.064.004-23.09.855-36.156 2.688l1 196.565zm12.248-185.621c88.992-11.808 129.16 36.533 129.16 88.661 0 61.056-55.008 96.384-128.16 87.168l-1-175.829zM746.841 13.509c-10.65-7.2-29.08-13.248-46.08-13.248-36.86 0-52.41 25.344-52.41 47.52 0 27.072 19.87 38.069 49.25 55.637 27.93 16.704 44.06 26.267 44.06 51.323 0 15.84-15.84 36.288-43.78 36.288-21.02 0-35.42-8.064-46.65-17.856l-7.2 10.368c10.94 9.792 25.05 18.432 54.43 18.72 30.24.288 55.01-15.264 55.87-49.248.87-26.496-18.72-44.123-50.11-61.115-19.58-10.656-42.62-22.517-42.62-44.981 0-19.584 14.68-35.424 39.16-35.424 17 0 28.52 4.896 40.61 12.096l5.47-10.08z" fill-rule="nonzero"/><g><path d="M480.282 68.182h-.001l-.04 134.079h-12.96l.02-134.239h-.02c0-9.086 1.784-18.395 5.308-26.764 3.363-7.986 8.348-15.332 14.472-21.457 6.124-6.124 13.458-11.136 21.456-14.471 8.679-3.619 17.593-5.211 26.31-5.069 35.358.576 67.475 29.682 67.454 67.761h-.02l.02 134.239h-12.96l-.034-134.239h-.006c0-30.08-24.421-54.5-54.5-54.5s-54.5 24.42-54.5 54.5l.001.16z"/><path d="M493.281 105.261v-37l.001-.268c.144-22.781 18.684-41.232 41.499-41.232s41.355 18.451 41.499 41.232l.001.268v37h-83zm13-13h57v-24l-.001-.184c-.099-15.645-12.831-28.316-28.499-28.316-15.73 0-28.5 12.77-28.5 28.5v24z"/></g></svg>