<svg viewBox="0 0 16 16" xmlns="http://www.w3.org/2000/svg" fill-rule="evenodd" clip-rule="evenodd" stroke-linejoin="round" stroke-miterlimit="1.414"><path d="M12 14.928A7.958 7.958 0 0 1 8 16a7.958 7.958 0 0 1-4-1.072V7.974A4.002 4.002 0 0 1 8 4c2.207 0 4 1.793 4 4v6.928zm-9-.685A7.987 7.987 0 0 1 0 8c0-4.416 3.584-8 8-8s8 3.584 8 8a7.987 7.987 0 0 1-3 6.243V7.967A5.002 5.002 0 0 0 8 3C5.24 3 3 5.24 3 8v6.243zM10.5 8v2.5h-5V7.984A2.501 2.501 0 0 1 8 5.5a2.501 2.501 0 0 1 2.5 2.484V8zm-4 0v1.5h3V8a1.5 1.5 0 0 0-3-.01V8z" fill="#f9b81f"/></svg>