<svg viewBox="0 0 16 16" xmlns="http://www.w3.org/2000/svg" fill-rule="evenodd" clip-rule="evenodd" stroke-linejoin="round" stroke-miterlimit="1.414"><path d="M12 14.928C10.823 15.61 9.457 16 8 16c-1.457 0-2.823-.39-4-1.072V7.974C4.014 5.78 5.8 4 8 4c2.207 0 4 1.793 4 4v6.928zm-9-.685C1.17 12.777 0 10.523 0 8c0-4.416 3.584-8 8-8s8 3.584 8 8c0 2.524-1.17 4.777-3 6.243V7.967C12.983 5.223 10.75 3 8 3 5.24 3 3 5.24 3 8v6.243zM10.5 8v2.5h-5V7.984C5.51 6.61 6.625 5.5 8 5.5s2.49 1.11 2.5 2.484V8zm-4 0v1.5h3V8c0-.828-.672-1.5-1.5-1.5-.825 0-1.495.667-1.5 1.49V8z" fill="#F9B81F"/></svg>