<svg viewBox="0 0 454 281" xmlns="http://www.w3.org/2000/svg" fill-rule="evenodd" clip-rule="evenodd" stroke-linejoin="round" stroke-miterlimit="1.414"><path d="M140.164 7.274c-73.344 0-132.89 59.546-132.89 132.89s59.546 132.89 132.89 132.89v.022l86.302-.019v-.003c16.831 0 30.495-13.665 30.495-30.495 0-16.83-13.664-30.495-30.495-30.495h-.09l-19.712-.006-9.987.006v-7.251l6.155-.001v-.022l13.663.01 9.971-.002v-.008c.252 0 .51.003.761.008l21.061-.004v-.004c16.831 0 30.495-13.664 30.495-30.494S265.119 143.8 248.288 143.8h-.09l-21.172-.007-14.123.007v-7.252l11.75-.002v-.02l10.62.009 13.015-.002v-.007c.235 0 .476.002.71.007l15.517-.004v-.003c16.83 0 30.495-13.665 30.495-30.495 0-16.83-13.664-30.495-30.495-30.495l-.09.001h-2.283v-.001l-21.262-.022v-7.251l23.635.01v-.01c.43 0 .867.007 1.304.021l149.77-.018v-.003c16.83 0 30.495-13.665 30.495-30.495 0-16.83-13.664-30.495-30.495-30.495h-.09l-275.335-.022v.022zm254.588 7.274H415.605c12.747.081 23.071 10.455 23.071 23.22 0 12.767-10.324 23.14-23.07 23.221h-20.854V14.55zm7.274 7.274v31.894h13.43l.102-.001c8.754-.055 15.844-7.18 15.844-15.946 0-8.802-7.145-15.947-15.947-15.947h-13.429zM140.164 280.328C62.802 280.328 0 217.522 0 140.164 0 62.956 62.562.246 139.71 0h.454l275.425.01v-.01c5.084 0 10.293.997 14.975 2.97 4.469 1.88 8.58 4.67 12.006 8.097 3.427 3.426 6.231 7.53 8.097 12.005a36.562 36.562 0 0 1 2.837 14.722c-.323 19.784-16.608 37.754-37.915 37.742v-.01l-128.52.009a38.742 38.742 0 0 1 4.427 3.795c3.424 3.427 6.233 7.53 8.096 12.006a36.572 36.572 0 0 1 2.837 14.72c-.29 17.973-13.759 34.449-32.196 37.307a38.333 38.333 0 0 1 5.036 4.23c3.425 3.427 6.233 7.53 8.097 12.006a36.572 36.572 0 0 1 2.836 14.721c-.318 19.56-16.237 37.347-37.192 37.737a37.958 37.958 0 0 1 4.437 3.8c3.425 3.427 6.233 7.53 8.097 12.005a36.572 36.572 0 0 1 2.837 14.722c-.325 19.784-16.607 37.754-37.915 37.743v-.012l-86.302.012z" fill="#f9b81f"/></svg>